Coordinates
version=1
nRows=13
nColumns=36
inDegrees=yes

Units are S.I. units (second, meters, Newtons, ...)
If the header above contains a line with 'inDegrees', this indicates whether rotational values are in degrees (yes) or radians (no).

endheader
time	pelvis_tilt	pelvis_list	pelvis_rotation	pelvis_tx	pelvis_ty	pelvis_tz	hip_flexion_r	hip_adduction_r	hip_rotation_r	knee_angle_r	knee_angle_r_beta	ankle_angle_r	subtalar_angle_r	mtp_angle_r	hip_flexion_l	hip_adduction_l	hip_rotation_l	knee_angle_l	knee_angle_l_beta	ankle_angle_l	subtalar_angle_l	mtp_angle_l	lumbar_extension	lumbar_bending	lumbar_rotation	arm_flex_r	arm_add_r	arm_rot_r	elbow_flex_r	pro_sup_r	arm_flex_l	arm_add_l	arm_rot_l	elbow_flex_l	pro_sup_l
      0.00000000	     -2.96160816	      1.10242812	     -2.35195096	      0.25637445	      1.24269643	     -0.55628786	      1.04228731	     -2.23302112	     -1.00937645	      0.76840200	      0.01341114	      3.09260928	     -2.64378180	     -7.20661180	     -2.48215555	     -0.69059646	     -1.52832176	      1.17729691	      0.02054771	      5.35470606	     -2.99925507	     -7.20661180	     -1.36005097	     -0.32069339	      2.24161675	      1.61691378	    -15.31002294	     13.49165533	     23.00298302	     85.07088299	     -3.78588750	    -14.65312290	      6.15243909	     25.62563461	     88.04522843
      0.01666670	     -2.98342756	      1.56588435	     -3.10824561	      0.26314939	      1.24141621	     -0.55863081	      0.95332571	     -2.78234305	     -0.89669742	      0.54511587	      0.00951407	      3.91004781	     -2.16196299	     -7.20897329	     -2.89379581	     -0.07730689	     -2.53294519	      0.65843940	      0.01149194	      4.81335335	     -3.16433405	     -7.20897329	     -1.32926728	     -0.57494344	      2.84237510	      1.42672004	    -15.23337921	     13.62133242	     22.78073057	     85.17847730	     -4.27441168	    -14.22390739	      6.08514105	     25.06957985	     88.06750666
      0.03333330	     -2.48292454	      1.49893607	     -2.55132777	      0.25255245	      1.23985238	     -0.55638679	      0.46252271	     -2.64993698	     -1.88810187	      0.61657158	      0.01076120	      4.16915831	     -1.51998767	     -7.30729382	     -3.11558390	     -0.17508673	     -2.68579643	      0.62874100	      0.01097360	      5.42755441	     -2.72715222	     -7.30729382	     -2.53683766	     -0.50020556	      3.08743779	      1.27875798	    -15.48581654	     13.33422025	     22.55563902	     88.82564411	     -2.67787954	    -13.67162874	      3.58957180	     23.64180395	     92.08987906
      0.05000000	     -2.19330971	      1.46116658	     -2.09795465	      0.25101181	      1.24402218	     -0.55716956	      0.32856262	     -2.63169900	     -2.65247565	      0.86428457	      0.01508461	      4.07606632	     -1.90353711	     -7.41135025	     -3.28746866	     -0.15316981	     -3.10898766	      0.67576121	      0.01179426	      5.72987820	     -2.45679383	     -7.41135025	     -3.48349331	     -0.45941900	      2.78517076	      1.55012304	    -15.88091383	     15.70613793	     22.86325920	     86.56041567	     -2.10211831	    -13.82756878	      4.90320136	     23.85766174	     89.98857902
      0.06666670	     -1.85758487	      1.53849377	     -1.86568025	      0.24970817	      1.24424265	     -0.55778851	      0.21503448	     -2.68327207	     -3.32372109	      1.24531066	      0.02173477	      4.33661601	     -1.73970215	     -7.46613277	     -3.48728476	     -0.03885849	     -3.08581551	      0.75434978	      0.01316589	      6.00675927	     -2.46085265	     -7.46613277	     -4.29773111	     -0.56300467	      2.64487162	      2.01516302	    -16.12209062	     17.87594205	     22.83947698	     85.25385754	     -1.56384567	    -13.97473966	      6.03492858	     23.91165223	     89.01707369
      0.08333330	     -1.49572466	      1.61760184	     -1.90840697	      0.25709570	      1.24121526	     -0.56092192	     -0.07454454	     -2.79424932	     -3.36486349	      1.69217502	      0.02953403	      4.43466214	     -2.09108667	     -7.47800264	     -3.96794629	      0.11564494	     -3.33407440	      0.75670609	      0.01320701	      6.05852424	     -2.46888581	     -7.47800264	     -4.87043019	     -0.61010618	      2.63271732	      1.83444369	    -15.75649541	     14.25496082	     22.98264523	     90.98312432	     -1.83168484	    -13.21705769	      0.94321513	     24.39983689	     95.96138885
      0.10000000	     -1.24201191	      1.70181809	     -1.88402736	      0.25609243	      1.24156674	     -0.56095352	     -0.27854696	     -2.89031330	     -3.38757587	      2.06917527	      0.03611392	      4.53636384	     -2.35256690	     -7.48749146	     -4.33167089	      0.22850969	     -3.37606755	      0.76071837	      0.01327704	      6.05774285	     -2.35102961	     -7.48749146	     -5.17918635	     -0.67543321	      2.68551119	      1.80474013	    -15.84540079	     15.83138779	     22.81710714	     86.14991040	     -1.66689725	    -13.24005002	      2.23400819	     24.13762860	     90.67793567
      0.11666670	     -1.08401941	      1.74836162	     -1.75448592	      0.24749481	      1.24224322	     -0.55763369	     -0.32923604	     -2.87677602	     -3.35150141	      2.39360550	      0.04177630	      4.48530683	     -2.76831552	     -7.48854194	     -4.37441695	      0.22636714	     -3.58346656	      0.84557181	      0.01475801	      6.20539419	     -1.93187805	     -7.48854194	     -5.69526510	     -0.74746550	      2.56630835	      1.73340633	    -16.06838009	     16.48355789	     23.64440427	     87.85397975	     -1.72648241	    -13.56977078	      2.72396527	     25.10673785	     92.63505071
      0.13333330	     -1.01971144	      1.80162022	     -1.62686802	      0.24723250	      1.24234260	     -0.55789077	     -0.28302991	     -2.88096052	     -3.35681313	      2.72096805	      0.04748985	      4.59360076	     -3.01364484	     -7.49506169	     -4.36524807	      0.24948794	     -3.54898804	      0.89091131	      0.01554934	      6.08120946	     -2.04162032	     -7.49506169	     -5.98698773	     -0.82751409	      2.39929156	      1.88417789	    -15.79873860	     15.12247677	     23.58165453	     91.56040712	     -1.60376775	    -13.38917470	      0.57197126	     25.17723934	     97.50454378
      0.15000000	     -1.01411647	      1.84594371	     -1.55013245	      0.24709455	      1.24241245	     -0.55768636	     -0.17655827	     -2.87331380	     -3.31570584	      2.89476709	      0.05052322	      4.54072931	     -3.33982327	     -7.49646320	     -4.34516095	      0.27104990	     -3.50542099	      0.85697995	      0.01495712	      6.01982681	     -1.91191806	     -7.49646320	     -6.19297777	     -0.88529998	      2.24480595	      2.09391593	    -15.72057937	     15.95115338	     23.55972292	     88.69841553	     -1.47038090	    -13.57491417	      1.32424316	     25.19505099	     94.37909326
      0.16666670	     -1.00404009	      1.87266092	     -1.53883271	      0.25482170	      1.23913131	     -0.56106322	     -0.22099431	     -2.87968934	     -3.32965882	      2.91416793	      0.05086183	      4.55879670	     -3.36337281	     -7.49646595	     -4.32850860	      0.29170039	     -3.51220045	      0.82829375	      0.01445645	      6.03796249	     -1.91273586	     -7.49646595	     -6.22059123	     -0.87714610	      2.29357542	      2.11585255	    -15.67919573	     15.96137906	     23.58988881	     88.70660210	     -1.51639210	    -13.57908827	      1.32891042	     25.18827155	     94.38702677
      0.18333330	     -1.00966071	      1.88319305	     -1.52553196	      0.24659549	      1.23950897	     -0.55777570	     -0.22043813	     -2.86157868	     -3.32981673	      2.91165746	      0.05081801	      4.56199901	     -3.36536976	     -7.49646617	     -4.30265889	      0.28932798	     -3.51047417	      0.81291907	      0.01418811	      6.04105604	     -1.91175618	     -7.49646617	     -6.21789636	     -0.87129981	      2.29124399	      2.10853263	    -15.67972616	     15.96238527	     23.59040126	     88.70765750	     -1.52109879	    -13.57736133	      1.32983467	     25.18897363	     94.38818583
      0.20000000	     -0.76285198	      1.92254803	     -1.45599494	      0.24640536	      1.23997425	     -0.55765811	     -0.31838902	     -2.83847431	     -3.05075205	      3.26816996	      0.05704033	      4.71981166	     -4.03951836	     -7.49823825	     -4.49078044	      0.28671356	     -3.69336798	      0.82436006	      0.01438780	      6.25751938	     -1.48670491	     -7.49823825	     -6.79745425	     -1.00956098	      2.13127867	      2.43570621	    -15.82312543	     18.06508362	     23.82019746	     85.55751492	     -1.30003746	    -14.03035509	      3.21169850	     25.19396642	     91.00591863
